<svg width="472" height="101" viewBox="0 0 472 101" fill="none" xmlns="http://www.w3.org/2000/svg">
<path d="M462.376 0.25H455.16V9.86972H462.376V0.25Z" fill="black"/>
<path d="M414.273 0.25H407.056V9.86972H414.273V0.25Z" fill="black"/>
<path d="M463.733 17.5467H455.412V9.87111H413.968V17.5467H405.701V25.2728H397.434V48.35H405.701V32.9483H413.968V48.35H422.289V40.6239H447.145V48.35H455.412V32.9483H463.733V48.35H472V25.2728H463.733V17.5467ZM430.556 25.2728H422.289V17.5467H430.556V25.2728ZM447.145 25.2728H438.877V17.5467H447.145V25.2728Z" fill="black"/>
<path d="M20.3103 82.5738C17.5742 82.5738 14.9784 82.0477 12.523 80.9955C10.1376 79.9434 7.99786 78.3301 6.10363 76.1556C4.2094 73.9812 2.70103 71.2806 1.57852 68.054C0.526175 64.8274 0 61.0396 0 56.6907C0 52.4821 0.526175 48.7995 1.57852 45.6431C2.63087 42.4164 4.06909 39.751 5.89316 37.6467C7.78739 35.4722 9.96224 33.8589 12.4177 32.8067C14.8732 31.7546 17.5392 31.2285 20.4156 31.2285C22.0292 31.2285 23.5726 31.4389 25.0459 31.8598C26.5894 32.2807 27.9574 32.912 29.1501 33.7537C30.4129 34.5253 31.4302 35.6125 32.2019 37.0154V10.8167H44.9353V11.7636C44.5144 12.1845 44.2338 12.6404 44.0935 13.1314C44.0233 13.6224 43.9882 14.4641 43.9882 15.6566L43.883 74.893C43.883 76.0153 43.9531 77.1025 44.0935 78.1547C44.2338 79.2069 44.5495 80.2941 45.0406 81.4164H33.3595C33.0087 80.6448 32.7632 80.0135 32.6228 79.5225C32.4825 79.0315 32.3773 78.5405 32.3071 78.0495C32.3071 77.4883 32.3071 76.822 32.3071 76.0504C31.4653 77.5234 30.4129 78.7509 29.1501 79.7329C27.8873 80.715 26.5192 81.4164 25.0459 81.8372C23.5726 82.3283 21.9941 82.5738 20.3103 82.5738ZM22.3098 72.9991C23.9234 72.9991 25.3265 72.6835 26.5192 72.0522C27.782 71.3508 28.7993 70.3337 29.571 69.0009C30.4129 67.6682 31.0092 65.9848 31.36 63.9506C31.781 61.8463 31.9914 59.4614 31.9914 56.7959C31.9914 53.1484 31.6406 50.1323 30.9391 47.7474C30.2375 45.2923 29.1501 43.4686 27.6768 42.2762C26.2035 41.0837 24.3093 40.4875 21.9941 40.4875C20.3805 40.4875 18.9072 40.8733 17.5742 41.6449C16.2413 42.3463 15.1538 43.3985 14.312 44.8013C13.4701 46.2042 12.8036 47.8877 12.3125 49.8517C11.8916 51.8157 11.6811 54.0252 11.6811 56.4803C11.6811 59.9173 12.1371 62.8634 13.0491 65.3184C14.0313 67.7734 15.3292 69.6673 16.9428 71C18.5564 72.3328 20.3454 72.9991 22.3098 72.9991Z" fill="black"/>
<path d="M72.4017 82.5738C68.8938 82.5738 65.6315 82.0126 62.6148 80.8903C59.6682 79.768 57.0724 78.1547 54.8274 76.0504C52.6526 73.8759 50.9688 71.2105 49.7761 68.054C48.5835 64.8975 47.9871 61.3202 47.9871 57.322C47.9871 53.2537 48.5835 49.6062 49.7761 46.3796C50.9688 43.153 52.5824 40.4173 54.617 38.1727C56.7216 35.9281 59.1771 34.2447 61.9834 33.1224C64.7897 31.9299 67.8064 31.3337 71.0336 31.3337C73.91 31.3337 76.6111 31.8247 79.1367 32.8067C81.6623 33.7888 83.8723 35.2968 85.7665 37.331C87.7309 39.295 89.2743 41.7851 90.3968 44.8013C91.5193 47.7474 92.0806 51.1844 92.0806 55.1125C92.0806 55.8139 92.0455 56.6556 91.9754 57.6376C91.9754 58.6197 91.9403 59.4614 91.8701 60.1628H59.4578C59.5981 62.4776 60.0541 64.4767 60.8258 66.1601C61.5975 67.7734 62.6148 69.1062 63.8776 70.1583C65.1404 71.2105 66.5436 72.0171 68.087 72.5783C69.6305 73.0693 71.2441 73.3148 72.9278 73.3148C74.4011 73.3148 75.8043 73.1745 77.1372 72.8939C78.5404 72.6133 79.8383 72.1223 81.0309 71.4209C82.2937 70.7195 83.4864 69.8076 84.6089 68.6853L90.7125 74.5774C89.1691 76.4011 87.4152 77.9443 85.4508 79.2069C83.5566 80.3993 81.4869 81.241 79.2419 81.732C77.0671 82.2932 74.787 82.5738 72.4017 82.5738ZM59.6682 51.2195H80.5048C80.5048 49.536 80.2592 48.0279 79.7681 46.6952C79.3472 45.3625 78.7158 44.2402 77.8739 43.3283C77.032 42.4164 75.9796 41.7501 74.7168 41.3292C73.5242 40.8382 72.121 40.5927 70.5074 40.5927C69.1745 40.5927 67.8766 40.8031 66.6137 41.224C65.4211 41.5747 64.3336 42.206 63.3514 43.1179C62.3693 44.0297 61.5625 45.152 60.931 46.4848C60.2996 47.8175 59.8787 49.3957 59.6682 51.2195Z" fill="black"/>
<path d="M120.599 82.679C118.845 82.679 117.162 82.4335 115.548 81.9425C113.934 81.4515 112.426 80.715 111.023 79.7329C109.69 78.6808 108.462 77.4533 107.34 76.0504L105.34 81.4164H96.29V10.8167H109.234V11.7636C108.813 12.1845 108.532 12.6404 108.392 13.1314C108.322 13.6224 108.287 14.4641 108.287 15.6566V37.9623C109.059 36.9803 109.9 36.0684 110.812 35.2267C111.724 34.385 112.742 33.6835 113.864 33.1224C114.987 32.4911 116.144 32.0352 117.337 31.7546C118.6 31.474 119.863 31.3337 121.125 31.3337C124.142 31.3337 126.843 31.8598 129.229 32.912C131.684 33.9641 133.754 35.5423 135.437 37.6467C137.191 39.6808 138.524 42.2411 139.436 45.3274C140.419 48.4137 140.91 52.0261 140.91 56.1646C140.91 60.6538 140.348 64.5819 139.226 67.9488C138.174 71.2455 136.7 73.9812 134.806 76.1556C132.912 78.3301 130.737 79.9784 128.281 81.1007C125.896 82.1529 123.335 82.679 120.599 82.679ZM118.179 73.42C119.652 73.42 121.055 73.1394 122.388 72.5783C123.721 71.947 124.879 71 125.861 69.7374C126.843 68.4749 127.615 66.8265 128.176 64.7923C128.737 62.688 129.018 60.1628 129.018 57.2168C129.018 54.5513 128.773 52.1664 128.281 50.0621C127.79 47.9578 127.089 46.2042 126.177 44.8013C125.265 43.3283 124.142 42.206 122.809 41.4344C121.546 40.6628 120.073 40.2771 118.389 40.2771C116.355 40.2771 114.566 40.9434 113.022 42.2762C111.549 43.5387 110.427 45.3976 109.655 47.8526C108.883 50.3076 108.462 53.2537 108.392 56.6907C108.392 59.3562 108.567 61.7411 108.918 63.8454C109.339 65.8795 109.935 67.6331 110.707 69.1062C111.549 70.509 112.566 71.5963 113.759 72.3678C115.022 73.0693 116.495 73.42 118.179 73.42Z" fill="black"/>
<path d="M160.904 82.679C158.94 82.679 157.081 82.3984 155.327 81.8372C153.573 81.3462 151.994 80.5747 150.591 79.5225C149.188 78.4002 147.96 76.9973 146.908 75.3139C145.926 73.6304 145.154 71.6313 144.593 69.3166C144.032 66.9317 143.751 64.2312 143.751 61.215V32.4911H155.748V61.215C155.748 63.3894 155.923 65.2482 156.274 66.7914C156.625 68.2644 157.151 69.4919 157.852 70.474C158.554 71.3858 159.361 72.0522 160.273 72.4731C161.255 72.8939 162.272 73.1044 163.325 73.1044C164.798 73.1044 166.131 72.8589 167.324 72.3678C168.586 71.8067 169.639 71 170.481 69.9479C171.393 68.8957 172.094 67.5981 172.585 66.0549C173.076 64.4416 173.322 62.5477 173.322 60.3733V32.4911H185.214V73.6304C185.214 75.1736 185.249 76.5765 185.319 77.8391C185.459 79.0315 185.775 80.2239 186.266 81.4164H175.427C175.076 80.715 174.83 80.0135 174.69 79.3121C174.55 78.6106 174.444 77.9092 174.374 77.2078C174.374 76.4362 174.374 75.7347 174.374 75.1034C173.603 76.2959 172.726 77.3831 171.743 78.3651C170.761 79.277 169.674 80.0486 168.481 80.6799C167.359 81.3112 166.131 81.8022 164.798 82.1529C163.535 82.5036 162.237 82.679 160.904 82.679Z" fill="black"/>
<path d="M211.101 100.25C207.594 100.25 204.472 99.9344 201.735 99.3031C198.999 98.6718 196.684 97.795 194.79 96.6727C192.896 95.5504 191.422 94.1826 190.37 92.5693C189.388 91.0261 188.897 89.2725 188.897 87.3085C188.897 85.625 189.318 84.0468 190.16 82.5738C191.001 81.1007 192.124 79.8382 193.527 78.786C195 77.6637 196.579 76.7869 198.263 76.1556L203.63 78.3651C202.718 79.0666 201.806 79.768 200.894 80.4695C200.052 81.1007 199.35 81.8022 198.789 82.5738C198.298 83.4155 198.052 84.3975 198.052 85.5198C198.052 86.4317 198.403 87.2383 199.105 87.9398C199.806 88.6412 200.788 89.2024 202.051 89.6232C203.314 90.1142 204.787 90.4649 206.471 90.6754C208.155 90.8858 210.014 90.991 212.048 90.991C214.714 90.991 216.959 90.7455 218.783 90.2545C220.608 89.7635 222.011 89.0621 222.993 88.1502C223.975 87.3085 224.466 86.3265 224.466 85.2042C224.466 84.152 224.186 83.2752 223.624 82.5738C223.063 81.9425 222.046 81.4865 220.572 81.206C219.099 80.9254 217.03 80.7851 214.364 80.7851C212.119 80.7851 209.909 80.6799 207.734 80.4695C205.559 80.259 203.489 79.9083 201.525 79.4173C199.631 78.9263 197.947 78.295 196.474 77.5234C195 76.6817 193.843 75.6646 193.001 74.4722C192.229 73.2797 191.843 71.8418 191.843 70.1583C191.843 67.8436 192.51 65.8445 193.843 64.161C195.246 62.4776 196.93 60.9344 198.894 59.5315L204.366 62.688C203.665 63.3193 203.033 63.8454 202.472 64.2662C201.981 64.6871 201.595 65.108 201.314 65.5288C201.034 65.8795 200.894 66.4056 200.894 67.1071C200.894 67.9488 201.42 68.6502 202.472 69.2114C203.595 69.7725 205.384 70.1934 207.839 70.474C210.365 70.7545 213.627 70.8948 217.626 70.8948C220.783 70.8948 223.414 71.2455 225.519 71.947C227.623 72.5783 229.307 73.5252 230.57 74.7878C231.833 75.9802 232.745 77.3831 233.306 78.9964C233.937 80.5396 234.253 82.188 234.253 83.9416C234.253 86.0459 233.797 88.045 232.885 89.9389C231.973 91.9029 230.57 93.6565 228.676 95.1997C226.781 96.7428 224.361 97.9703 221.414 98.8822C218.538 99.7941 215.1 100.25 211.101 100.25ZM210.154 64.8975C206.717 64.8975 203.595 64.161 200.788 62.688C198.052 61.215 195.877 59.2159 194.264 56.6907C192.72 54.0954 191.949 51.2195 191.949 48.063C191.949 44.9065 192.72 42.0657 194.264 39.5405C195.877 36.9452 198.052 34.876 200.788 33.3328C203.595 31.7897 206.717 31.0181 210.154 31.0181C213.662 31.0181 216.749 31.7897 219.415 33.3328C222.151 34.876 224.291 36.9452 225.834 39.5405C227.448 42.0657 228.255 44.9065 228.255 48.063C228.255 51.2195 227.448 54.0954 225.834 56.6907C224.291 59.2159 222.151 61.215 219.415 62.688C216.749 64.161 213.662 64.8975 210.154 64.8975ZM210.049 56.2698C211.592 56.2698 212.96 55.9191 214.153 55.2177C215.416 54.5162 216.398 53.5342 217.1 52.2716C217.871 51.0091 218.257 49.6062 218.257 48.063C218.257 46.5199 217.871 45.1521 217.1 43.9596C216.398 42.7672 215.416 41.8202 214.153 41.1188C212.96 40.4173 211.592 40.0666 210.049 40.0666C208.646 40.0666 207.313 40.4524 206.05 41.224C204.857 41.9254 203.875 42.8724 203.104 44.0648C202.332 45.2573 201.946 46.59 201.946 48.063C201.946 49.536 202.297 50.9038 202.998 52.1664C203.77 53.429 204.752 54.4461 205.945 55.2177C207.208 55.9191 208.576 56.2698 210.049 56.2698ZM225.308 41.4344L220.783 35.858C222.747 34.2447 224.992 33.0172 227.518 32.1754C230.044 31.3337 232.78 31.0181 235.726 31.2285L236.884 39.4353C234.779 39.0145 232.71 38.9794 230.675 39.3301C228.641 39.6808 226.852 40.3823 225.308 41.4344Z" fill="black"/>
<path d="M258.457 100.25C254.949 100.25 251.827 99.9344 249.091 99.3031C246.355 98.6718 244.04 97.795 242.146 96.6727C240.251 95.5504 238.778 94.1826 237.726 92.5693C236.744 91.0261 236.252 89.2725 236.252 87.3085C236.252 85.625 236.673 84.0468 237.515 82.5738C238.357 81.1007 239.48 79.8382 240.883 78.786C242.356 77.6637 243.935 76.7869 245.618 76.1556L250.985 78.3651C250.073 79.0666 249.161 79.768 248.249 80.4695C247.407 81.1007 246.706 81.8022 246.145 82.5738C245.653 83.4155 245.408 84.3975 245.408 85.5198C245.408 86.4317 245.759 87.2383 246.46 87.9398C247.162 88.6412 248.144 89.2024 249.407 89.6232C250.67 90.1142 252.143 90.4649 253.827 90.6754C255.51 90.8858 257.37 90.991 259.404 90.991C262.07 90.991 264.315 90.7455 266.139 90.2545C267.963 89.7635 269.366 89.0621 270.349 88.1502C271.331 87.3085 271.822 86.3265 271.822 85.2042C271.822 84.152 271.541 83.2752 270.98 82.5738C270.419 81.9425 269.402 81.4865 267.928 81.206C266.455 80.9254 264.385 80.7851 261.719 80.7851C259.474 80.7851 257.264 80.6799 255.09 80.4695C252.915 80.259 250.845 79.9083 248.881 79.4173C246.986 78.9263 245.303 78.295 243.829 77.5234C242.356 76.6817 241.199 75.6646 240.357 74.4722C239.585 73.2797 239.199 71.8418 239.199 70.1583C239.199 67.8436 239.866 65.8445 241.199 64.161C242.602 62.4776 244.285 60.9344 246.25 59.5315L251.722 62.688C251.02 63.3193 250.389 63.8454 249.828 64.2662C249.337 64.6871 248.951 65.108 248.67 65.5288C248.39 65.8795 248.249 66.4056 248.249 67.1071C248.249 67.9488 248.775 68.6502 249.828 69.2114C250.95 69.7725 252.739 70.1934 255.195 70.474C257.72 70.7545 260.983 70.8948 264.982 70.8948C268.139 70.8948 270.77 71.2455 272.874 71.947C274.979 72.5783 276.663 73.5252 277.926 74.7878C279.188 75.9802 280.1 77.3831 280.662 78.9964C281.293 80.5396 281.609 82.188 281.609 83.9416C281.609 86.0459 281.153 88.045 280.241 89.9389C279.329 91.9029 277.926 93.6565 276.031 95.1997C274.137 96.7428 271.717 97.9703 268.77 98.8822C265.894 99.7941 262.456 100.25 258.457 100.25ZM257.51 64.8975C254.072 64.8975 250.95 64.161 248.144 62.688C245.408 61.215 243.233 59.2159 241.619 56.6907C240.076 54.0954 239.304 51.2195 239.304 48.063C239.304 44.9065 240.076 42.0657 241.619 39.5405C243.233 36.9452 245.408 34.876 248.144 33.3328C250.95 31.7897 254.072 31.0181 257.51 31.0181C261.018 31.0181 264.105 31.7897 266.771 33.3328C269.507 34.876 271.647 36.9452 273.19 39.5405C274.804 42.0657 275.61 44.9065 275.61 48.063C275.61 51.2195 274.804 54.0954 273.19 56.6907C271.647 59.2159 269.507 61.215 266.771 62.688C264.105 64.161 261.018 64.8975 257.51 64.8975ZM257.405 56.2698C258.948 56.2698 260.316 55.9191 261.509 55.2177C262.772 54.5162 263.754 53.5342 264.455 52.2716C265.227 51.0091 265.613 49.6062 265.613 48.063C265.613 46.5199 265.227 45.1521 264.455 43.9596C263.754 42.7672 262.772 41.8202 261.509 41.1188C260.316 40.4173 258.948 40.0666 257.405 40.0666C256.002 40.0666 254.669 40.4524 253.406 41.224C252.213 41.9254 251.231 42.8724 250.459 44.0648C249.688 45.2573 249.302 46.59 249.302 48.063C249.302 49.536 249.652 50.9038 250.354 52.1664C251.126 53.429 252.108 54.4461 253.301 55.2177C254.563 55.9191 255.931 56.2698 257.405 56.2698ZM272.664 41.4344L268.139 35.858C270.103 34.2447 272.348 33.0172 274.874 32.1754C277.399 31.3337 280.135 31.0181 283.082 31.2285L284.24 39.4353C282.135 39.0145 280.065 38.9794 278.031 39.3301C275.996 39.6808 274.207 40.3823 272.664 41.4344Z" fill="black"/>
<path d="M309.18 82.5738C305.672 82.5738 302.41 82.0126 299.393 80.8903C296.447 79.768 293.851 78.1547 291.606 76.0504C289.431 73.8759 287.747 71.2105 286.555 68.054C285.362 64.8975 284.766 61.3202 284.766 57.322C284.766 53.2537 285.362 49.6062 286.555 46.3796C287.747 43.153 289.361 40.4173 291.396 38.1727C293.5 35.9281 295.956 34.2447 298.762 33.1224C301.568 31.9299 304.585 31.3337 307.812 31.3337C310.689 31.3337 313.39 31.8247 315.915 32.8067C318.441 33.7888 320.651 35.2968 322.545 37.331C324.51 39.295 326.053 41.7851 327.176 44.8013C328.298 47.7474 328.859 51.1844 328.859 55.1125C328.859 55.8139 328.824 56.6556 328.754 57.6376C328.754 58.6197 328.719 59.4614 328.649 60.1628H296.236C296.377 62.4776 296.833 64.4767 297.604 66.1601C298.376 67.7734 299.393 69.1062 300.656 70.1583C301.919 71.2105 303.322 72.0171 304.866 72.5783C306.409 73.0693 308.023 73.3148 309.706 73.3148C311.18 73.3148 312.583 73.1745 313.916 72.8939C315.319 72.6133 316.617 72.1223 317.81 71.4209C319.072 70.7195 320.265 69.8076 321.388 68.6853L327.491 74.5774C325.948 76.4011 324.194 77.9443 322.229 79.2069C320.335 80.3993 318.266 81.241 316.021 81.732C313.846 82.2932 311.566 82.5738 309.18 82.5738ZM296.447 51.2195H317.283C317.283 49.536 317.038 48.0279 316.547 46.6952C316.126 45.3625 315.494 44.2402 314.653 43.3283C313.811 42.4164 312.758 41.7501 311.495 41.3292C310.303 40.8382 308.9 40.5927 307.286 40.5927C305.953 40.5927 304.655 40.8031 303.392 41.224C302.2 41.5747 301.112 42.206 300.13 43.1179C299.148 44.0297 298.341 45.152 297.71 46.4848C297.078 47.8175 296.657 49.3957 296.447 51.2195Z" fill="black"/>
<path d="M337.383 32.4911H349.696L349.591 46.1691L348.223 45.3274C348.503 43.1529 349.099 41.224 350.012 39.5405C350.994 37.8571 352.186 36.3841 353.589 35.1215C355.063 33.8589 356.641 32.912 358.325 32.2807C360.079 31.6494 361.868 31.3337 363.692 31.3337C366.428 31.3337 368.884 31.7897 371.058 32.7015C373.303 33.5432 375.373 34.9461 377.267 36.9102L372.216 46.9056L371.9 47.7474L370.953 47.3265C370.743 46.7654 370.532 46.2042 370.322 45.6431C370.111 45.0118 369.585 44.3103 368.743 43.5387C367.761 42.7672 366.709 42.1709 365.586 41.7501C364.534 41.3292 363.376 41.1188 362.113 41.1188C360.43 41.1188 358.816 41.3994 357.273 41.9605C355.729 42.5217 354.361 43.3985 353.169 44.5909C352.046 45.7833 351.134 47.3265 350.432 49.2204C349.801 51.0441 349.485 53.2186 349.485 55.7438V81.4164H337.383V32.4911Z" fill="black"/>
</svg>
