<svg width="411" height="111" viewBox="0 0 411 111" fill="none" xmlns="http://www.w3.org/2000/svg">
<path d="M0.335938 92.5593V82.8649H12.7706V51.603H0.99039V41.9086H25.2052V82.8649H36.549V92.5593H0.335938ZM18.4425 33.5213C16.261 33.5213 14.4067 32.7951 12.8796 31.3427C11.4253 29.8904 10.6981 28.1476 10.6981 26.1143C10.6981 24.0084 11.4253 22.2655 12.8796 20.8858C14.334 19.4335 16.1883 18.7073 18.4425 18.7073C20.4786 18.7073 22.2601 19.4335 23.7872 20.8858C25.387 22.3382 26.1868 24.081 26.1868 26.1143C26.1868 28.1476 25.387 29.8904 23.7872 31.3427C22.2601 32.7951 20.4786 33.5213 18.4425 33.5213Z" fill="black"/>
<path d="M46.2567 92.5593V41.9086H58.5823V48.8799C60.4002 46.4109 62.509 44.4502 64.9087 42.9979C67.3083 41.4729 70.0716 40.7104 73.1984 40.7104C76.1071 40.7104 78.7976 41.4366 81.27 42.8889C83.8151 44.2687 85.8512 46.5198 87.3782 49.6424C88.9053 52.7649 89.6688 56.8678 89.6688 61.951V92.5593H77.3433V62.1689C77.3433 58.0297 76.6888 55.0161 75.3799 53.128C74.071 51.1673 72.2531 50.187 69.9261 50.187C68.1082 50.187 66.3266 50.6953 64.5814 51.712C62.8362 52.656 61.3819 54.0357 60.2184 55.8512C59.1277 57.6666 58.5823 59.8451 58.5823 62.3867V92.5593H46.2567Z" fill="black"/>
<path d="M117.592 93.7575C112.938 93.7575 108.648 93.1403 104.721 91.9058C100.795 90.6713 97.3041 88.6017 94.25 85.697L99.7038 75.6757L100.14 74.8043L101.013 75.349C101.231 75.8573 101.449 76.4382 101.667 77.0918C101.885 77.6727 102.431 78.3626 103.303 79.1614C105.121 80.6863 107.157 81.8845 109.411 82.7559C111.738 83.6274 114.538 84.0631 117.81 84.0631C120.864 84.0631 123.228 83.5547 124.9 82.5381C126.573 81.5214 127.409 80.178 127.409 78.5078C127.409 76.8376 126.464 75.4942 124.573 74.4775C122.755 73.4609 119.737 72.3353 115.52 71.1008C109.993 69.6485 105.594 67.6878 102.322 65.2188C99.0493 62.7498 97.4132 59.4457 97.4132 55.3065C97.4132 51.1673 99.1947 47.718 102.758 44.9585C106.394 42.1264 111.266 40.7104 117.374 40.7104C125.736 40.7104 132.536 43.2883 137.771 48.4442L131.772 56.8315L131.008 57.7029L130.245 57.0493C130.172 56.4684 129.99 55.9238 129.7 55.4154C129.481 54.9071 128.936 54.2173 128.063 53.3459C126.609 52.3292 124.937 51.5667 123.046 51.0584C121.228 50.4775 119.41 50.187 117.592 50.187C115.12 50.187 112.975 50.5864 111.157 51.3852C109.411 52.184 108.539 53.4185 108.539 55.0887C108.539 56.541 109.484 57.7755 111.375 58.7922C113.265 59.8088 116.501 60.8981 121.083 62.06C127.191 63.5849 131.627 65.6182 134.39 68.1598C137.153 70.6288 138.535 73.824 138.535 77.7453C138.535 80.65 137.735 83.3369 136.135 85.8059C134.535 88.2023 132.172 90.1266 129.045 91.579C125.991 93.0313 122.173 93.7575 117.592 93.7575Z" fill="black"/>
<path d="M143.661 110.75L143.552 41.7997H155.769V48.8799C157.368 46.0478 159.404 43.9782 161.877 42.6711C164.349 41.364 167.076 40.7104 170.057 40.7104C173.766 40.7104 177.111 41.727 180.092 43.7603C183.147 45.721 185.583 48.6983 187.401 52.6923C189.218 56.6136 190.127 61.5153 190.127 67.3973C190.127 73.352 189.182 78.29 187.291 82.2113C185.401 86.1327 182.892 89.0737 179.765 91.0343C176.711 92.9224 173.402 93.8664 169.839 93.8664C167.149 93.8664 164.567 93.3944 162.095 92.4504C159.623 91.5064 157.659 90.0903 156.205 88.2023V110.75H143.661ZM166.458 84.2809C168.567 84.2809 170.494 83.7363 172.239 82.647C173.984 81.5578 175.366 79.7423 176.384 77.2007C177.402 74.6591 177.911 71.1735 177.911 66.7438C177.911 61.7332 176.929 57.7755 174.966 54.8708C173.075 51.9661 170.457 50.4775 167.112 50.4048C163.622 50.3322 160.895 51.712 158.932 54.544C157.041 57.3035 156.096 61.8421 156.096 68.1598C156.241 78.9072 159.695 84.2809 166.458 84.2809Z" fill="black"/>
<path d="M217.069 93.7575C212.197 93.7575 207.834 92.7409 203.98 90.7076C200.199 88.6743 197.217 85.697 195.036 81.7756C192.854 77.8543 191.764 73.1341 191.764 67.6152C191.764 61.951 192.818 57.122 194.927 53.128C197.108 49.134 199.981 46.0841 203.544 43.9782C207.18 41.7997 211.215 40.7104 215.651 40.7104C219.578 40.7104 223.177 41.6181 226.45 43.4336C229.795 45.249 232.449 48.0085 234.412 51.712C236.448 55.3428 237.466 59.8814 237.466 65.3277C237.466 66.0539 237.43 66.9253 237.357 67.942C237.357 68.9586 237.321 69.83 237.248 70.5562H203.653C203.798 73.7514 204.562 76.3656 205.943 78.3989C207.325 80.3596 209.034 81.8119 211.07 82.7559C213.106 83.7 215.287 84.172 217.614 84.172C219.869 84.172 222.014 83.8089 224.05 83.0827C226.086 82.3566 227.977 81.1221 229.722 79.3792L236.048 85.4791C233.576 88.3838 230.74 90.4897 227.54 91.7968C224.341 93.1039 220.85 93.7575 217.069 93.7575ZM203.871 61.2975H225.468C225.468 57.7392 224.559 55.0161 222.741 53.128C220.923 51.2399 218.378 50.2959 215.106 50.2959C212.27 50.2959 209.797 51.2036 207.689 53.0191C205.58 54.7619 204.307 57.5214 203.871 61.2975Z" fill="black"/>
<path d="M266.917 93.8664C261.972 93.8664 257.536 92.7409 253.609 90.4897C249.683 88.2386 246.556 85.1523 244.229 81.231C241.975 77.237 240.848 72.6984 240.848 67.6152C240.848 62.6046 241.975 58.066 244.229 53.9994C246.556 49.9328 249.683 46.7013 253.609 44.305C257.536 41.9086 262.008 40.7104 267.026 40.7104C271.68 40.7104 275.752 41.5818 279.242 43.3246C282.733 45.0675 285.496 47.4638 287.532 50.5138L280.66 58.0297L280.006 58.7922L279.133 58.1386C279.133 57.485 279.06 56.9041 278.915 56.3958C278.769 55.8148 278.297 55.0524 277.497 54.1083C276.115 52.8012 274.552 51.8935 272.807 51.3852C271.134 50.8769 269.244 50.6227 267.135 50.6227C264.735 50.6227 262.481 51.2762 260.372 52.5834C258.263 53.8905 256.554 55.8148 255.245 58.3565C254.009 60.8981 253.391 63.9843 253.391 67.6152C253.391 70.883 254.046 73.7514 255.355 76.2204C256.663 78.6167 258.372 80.5048 260.481 81.8845C262.663 83.1917 264.99 83.8452 267.462 83.8452C269.716 83.8452 271.934 83.3732 274.116 82.4292C276.297 81.4851 278.333 79.8512 280.224 77.5275L287.096 85.3702C284.405 88.3475 281.278 90.526 277.715 91.9058C274.152 93.2129 270.552 93.8664 266.917 93.8664Z" fill="black"/>
<path d="M318.291 93.6486C314.364 93.6486 311.129 92.8135 308.583 91.1433C306.038 89.4005 304.184 86.5321 303.021 82.5381C301.857 78.5441 301.421 73.1341 301.712 66.3081L302.257 51.603H291.895L292.113 41.9086H302.693L303.13 29.9267L315.891 28.2928L316.873 28.1839L316.982 29.1642C316.619 29.6725 316.291 30.2172 316.001 30.7981C315.782 31.3064 315.637 32.1415 315.564 33.3034L314.801 41.9086H331.162L331.053 51.603H314.692L314.037 66.0902C313.819 70.8104 313.964 74.4412 314.474 76.9829C315.055 79.5245 315.891 81.3036 316.982 82.3202C318.146 83.2643 319.527 83.7363 321.127 83.7363C323.454 83.7363 325.526 83.2643 327.344 82.3202C329.235 81.3762 330.98 80.287 332.58 79.0525L335.198 87.9844C332.653 89.7998 329.999 91.2159 327.235 92.2325C324.472 93.1766 321.491 93.6486 318.291 93.6486Z" fill="black"/>
<path d="M410.336 40.7684H404.989V46.1078H410.336V40.7684Z" fill="black"/>
<path d="M404.987 46.1078H402.322V48.7687H404.987V46.1078Z" fill="black"/>
<path d="M404.99 30.0894V22.0892H407.673V14.089H399.661V22.0892H402.326V30.0894H404.99Z" fill="black"/>
<path d="M402.326 48.7696H399.661V51.448H402.326V48.7696Z" fill="black"/>
<path d="M402.326 30.0894L399.661 30.0898V32.7682H402.326V30.0894Z" fill="black"/>
<path d="M399.658 51.4471H396.975V56.7689H399.658V51.4471Z" fill="black"/>
<path d="M399.658 32.7688H396.975V35.4297H399.658V32.7688Z" fill="black"/>
<path d="M396.979 35.4291H394.315V38.1075H396.979V35.4291Z" fill="black"/>
<path d="M394.311 38.1081H391.629V56.7695H394.311V38.1081Z" fill="black"/>
<path d="M394.315 30.0901V8.75025H396.979V0.75H388.968V8.75025H391.632V30.0901H394.315ZM391.632 3.42842H394.315V6.08933H391.632V3.42842Z" fill="black"/>
<path d="M391.632 30.0901L388.968 30.0898V32.7682H391.632V30.0901Z" fill="black"/>
<path d="M388.965 32.7688H386.301V56.7695H388.965V32.7688Z" fill="black"/>
<path d="M378.274 27.4285H380.957V56.7686H383.621V27.4285H386.303V19.4283H378.274V27.4285Z" fill="black"/>
<path d="M378.272 32.7688H375.607V56.7695H378.272V32.7688Z" fill="black"/>
<path d="M375.611 30.0898H372.947V32.7682H375.611V30.0898Z" fill="black"/>
<path d="M372.943 43.4303H370.261V56.7699H372.943V43.4303Z" fill="black"/>
<path d="M372.947 16.7674H375.611V8.74962H367.6V16.7674H370.264V30.0894L372.947 30.0898V16.7674Z" fill="black"/>
<path d="M370.264 40.7684H367.6V43.4293H370.264V40.7684Z" fill="black"/>
<path d="M367.597 51.4471H364.933V56.7689H367.597V51.4471Z" fill="black"/>
<path d="M367.597 38.1081H364.933V40.7691H367.597V38.1081Z" fill="black"/>
<path d="M367.597 35.4297V27.4295H359.586V35.4297H362.251V38.1081L364.933 38.1081V35.4297H367.597ZM362.251 32.7688V30.0904H364.933V32.7688H362.251Z" fill="black"/>
<path d="M364.935 48.7696H362.253V51.448H364.935V48.7696Z" fill="black"/>
<path d="M362.251 46.1078H359.586V48.7687H362.251V46.1078Z" fill="black"/>
<path d="M359.586 40.7684H354.239V46.1078L359.586 46.1078V40.7684Z" fill="black"/>
</svg>
