<svg width="498" height="112" viewBox="0 0 498 112" fill="none" xmlns="http://www.w3.org/2000/svg">
<path d="M25.6558 94.4139C21.8393 94.4139 18.6941 93.6017 16.2204 91.9773C13.7467 90.2823 11.9445 87.4925 10.8136 83.6081C9.68278 79.7236 9.25872 74.4619 9.54143 67.823L10.0715 53.5211H0L0.212032 44.0924H10.4956L10.9196 32.439L23.3235 30.8499L24.2776 30.744L24.3837 31.6974C24.0303 32.1918 23.7122 32.7215 23.4295 33.2865C23.2175 33.7809 23.0761 34.5931 23.0054 35.7231L22.2633 44.0924H38.1657L38.0597 53.5211H22.1573L21.5212 67.6111C21.3092 72.2018 21.4505 75.7332 21.9453 78.2051C22.5107 80.6771 23.3235 82.4074 24.3837 83.3962C25.5145 84.3143 26.8574 84.7734 28.4123 84.7734C30.6739 84.7734 32.6882 84.3143 34.4552 83.3962C36.2928 82.478 37.989 81.4186 39.5439 80.218L42.0883 88.9051C39.6146 90.6707 37.0349 92.048 34.3491 93.0367C31.6634 93.9549 28.7656 94.4139 25.6558 94.4139Z" fill="black"/>
<path d="M55.0222 112C52.6192 112 50.4989 111.612 48.6613 110.835C46.8237 110.058 45.0214 108.928 43.2545 107.445L47.3891 99.1813L47.8132 98.2278L48.7673 98.6516C48.9793 99.2166 49.2267 99.7463 49.5094 100.241C49.7921 100.735 50.4282 101.3 51.4177 101.936C52.4779 102.501 53.6794 102.783 55.0222 102.783C57.1426 102.783 58.8388 101.9 60.111 100.135C61.4539 98.3691 62.7967 95.5793 64.1396 91.7654L44.9507 44.0924H56.9305L69.5464 76.616L74.8472 61.5725C75.9074 58.5356 76.7908 55.6046 77.4976 52.7795C78.2044 49.9544 78.6638 47.0587 78.8758 44.0924H90.0075C89.7248 47.2706 88.9827 50.6254 87.7812 54.1567C86.5796 57.6881 85.3781 61.0428 84.1766 64.221L71.9848 97.6981C70.0058 102.924 67.6028 106.597 64.7757 108.716C62.0193 110.905 58.7681 112 55.0222 112Z" fill="black"/>
<path d="M94.4601 111.047L94.3541 43.9865H106.228V50.8726C107.783 48.1181 109.762 46.1053 112.165 44.834C114.568 43.5627 117.218 42.9271 120.116 42.9271C123.721 42.9271 126.972 43.9158 129.869 45.8934C132.838 47.8003 135.206 50.696 136.973 54.5805C138.739 58.3943 139.623 63.1616 139.623 68.8824C139.623 74.6738 138.704 79.4764 136.867 83.2902C135.029 87.1041 132.591 89.9645 129.551 91.8714C126.583 93.7077 123.367 94.6258 119.904 94.6258C117.289 94.6258 114.78 94.1668 112.377 93.2486C109.974 92.3305 108.066 90.9532 106.652 89.1169V111.047H94.4601ZM116.617 85.3031C118.667 85.3031 120.54 84.7734 122.236 83.714C123.933 82.6546 125.275 80.8889 126.265 78.417C127.254 75.9451 127.749 72.555 127.749 68.2467C127.749 63.3735 126.795 59.5243 124.887 56.6993C123.049 53.8742 120.505 52.4264 117.254 52.3557C113.861 52.2851 111.211 53.627 109.302 56.3815C107.465 59.0653 106.546 63.4794 106.546 69.624C106.687 80.0767 110.044 85.3031 116.617 85.3031Z" fill="black"/>
<path d="M165.809 94.5199C161.073 94.5199 156.833 93.5311 153.087 91.5536C149.412 89.576 146.514 86.6803 144.394 82.8665C142.273 79.0526 141.213 74.4619 141.213 69.0943C141.213 63.5854 142.238 58.8887 144.288 55.0042C146.408 51.1198 149.2 48.1534 152.663 46.1053C156.197 43.9865 160.119 42.9271 164.431 42.9271C168.247 42.9271 171.746 43.8099 174.926 45.5756C178.177 47.3412 180.757 50.0251 182.665 53.627C184.644 57.1584 185.634 61.5725 185.634 66.8695C185.634 67.5758 185.598 68.4233 185.528 69.4121C185.528 70.4009 185.492 71.2484 185.422 71.9547H152.769C152.91 75.0622 153.652 77.6048 154.995 79.5823C156.338 81.4893 157.999 82.9018 159.978 83.8199C161.957 84.7381 164.077 85.1972 166.339 85.1972C168.53 85.1972 170.615 84.844 172.594 84.1378C174.573 83.4315 176.41 82.2308 178.107 80.5358L184.256 86.4684C181.853 89.2935 179.096 91.3417 175.986 92.613C172.877 93.8842 169.484 94.5199 165.809 94.5199ZM152.981 62.9497H173.972C173.972 59.489 173.089 56.8405 171.322 55.0042C169.555 53.1679 167.081 52.2498 163.901 52.2498C161.144 52.2498 158.741 53.1326 156.691 54.8983C154.642 56.5933 153.405 59.2772 152.981 62.9497Z" fill="black"/>
<path d="M214.364 94.6258C211.749 94.6258 209.275 94.0608 206.943 92.9308C204.611 91.8008 202.632 90.141 201.006 87.9516L198.992 93.3545H189.874V22.2688H202.914V23.2222C202.49 23.646 202.208 24.1404 202.066 24.7054C201.996 25.1998 201.96 26.012 201.96 27.142V49.6013C203.444 47.5531 205.317 45.9287 207.579 44.7281C209.911 43.4568 212.35 42.8564 214.894 42.9271C220.902 42.9977 225.708 45.1165 229.312 49.2835C232.988 53.3798 234.825 59.595 234.825 67.9289C234.825 73.9322 233.871 78.9114 231.963 82.8665C230.054 86.8216 227.545 89.7879 224.436 91.7654C221.326 93.6724 217.969 94.6258 214.364 94.6258ZM211.926 85.3031C214.894 85.3031 217.439 84.1024 219.559 81.7011C221.75 79.2292 222.845 74.9916 222.845 68.9883C222.845 63.6207 221.891 59.4537 219.983 56.4874C218.145 53.4505 215.53 51.932 212.138 51.932C209.028 51.932 206.554 53.4151 204.717 56.3815C202.95 59.2772 202.066 63.3029 202.066 68.4586C202.066 73.8969 202.844 78.0639 204.399 80.9596C206.024 83.8553 208.533 85.3031 211.926 85.3031Z" fill="black"/>
<path d="M261.223 94.5199C256.488 94.5199 252.247 93.5311 248.501 91.5536C244.826 89.576 241.928 86.6803 239.808 82.8665C237.688 79.0526 236.627 74.4619 236.627 69.0943C236.627 63.5854 237.652 58.8887 239.702 55.0042C241.822 51.1198 244.614 48.1534 248.077 46.1053C251.611 43.9865 255.534 42.9271 259.845 42.9271C263.662 42.9271 267.16 43.8099 270.34 45.5756C273.592 47.3412 276.171 50.0251 278.08 53.627C280.059 57.1584 281.048 61.5725 281.048 66.8695C281.048 67.5758 281.013 68.4233 280.942 69.4121C280.942 70.4009 280.907 71.2484 280.836 71.9547H248.183C248.325 75.0622 249.067 77.6048 250.41 79.5823C251.752 81.4893 253.413 82.9018 255.392 83.8199C257.371 84.7381 259.492 85.1972 261.753 85.1972C263.944 85.1972 266.029 84.844 268.008 84.1378C269.987 83.4315 271.825 82.2308 273.521 80.5358L279.67 86.4684C277.267 89.2935 274.51 91.3417 271.401 92.613C268.291 93.8842 264.898 94.5199 261.223 94.5199ZM248.395 62.9497H269.386C269.386 59.489 268.503 56.8405 266.736 55.0042C264.969 53.1679 262.495 52.2498 259.315 52.2498C256.558 52.2498 254.155 53.1326 252.106 54.8983C250.056 56.5933 248.819 59.2772 248.395 62.9497Z" fill="black"/>
<path d="M289.635 44.0924H302.039L301.933 52.0379C303.276 49.2128 305.255 46.9881 307.87 45.3637C310.485 43.7393 313.242 42.9271 316.139 42.9271C321.652 42.9271 326.211 44.7987 329.815 48.5419L324.727 58.6062L324.409 59.4537L323.454 59.03C323.242 58.4649 323.03 57.8999 322.818 57.3349C322.606 56.6993 322.076 55.993 321.228 55.2161C320.239 54.4392 319.178 53.8389 318.048 53.4151C316.987 52.9914 315.821 52.7795 314.549 52.7795C311.157 52.7795 308.188 53.9448 305.644 56.2755C303.099 58.6062 301.827 62.3494 301.827 67.5052V93.3545H289.635V44.0924Z" fill="black"/>
<path d="M337.343 44.0924H349.746L349.64 52.0379C350.983 49.2128 352.962 46.9881 355.577 45.3637C358.192 43.7393 360.949 42.9271 363.846 42.9271C369.359 42.9271 373.918 44.7987 377.523 48.5419L372.434 58.6062L372.116 59.4537L371.162 59.03C370.95 58.4649 370.738 57.8999 370.525 57.3349C370.313 56.6993 369.783 55.993 368.935 55.2161C367.946 54.4392 366.886 53.8389 365.755 53.4151C364.695 52.9914 363.528 52.7795 362.256 52.7795C358.864 52.7795 355.895 53.9448 353.351 56.2755C350.807 58.6062 349.534 62.3494 349.534 67.5052V93.3545H337.343V44.0924Z" fill="black"/>
<path d="M388.972 112C386.569 112 384.449 111.612 382.611 110.835C380.774 110.058 378.971 108.928 377.204 107.445L381.339 99.1813L381.763 98.2278L382.717 98.6516C382.929 99.2166 383.177 99.7463 383.459 100.241C383.742 100.735 384.378 101.3 385.368 101.936C386.428 102.501 387.629 102.783 388.972 102.783C391.093 102.783 392.789 101.9 394.061 100.135C395.404 98.3691 396.747 95.5793 398.09 91.7654L378.901 44.0924H390.881L403.496 76.616L408.797 61.5725C409.857 58.5356 410.741 55.6046 411.448 52.7795C412.154 49.9544 412.614 47.0587 412.826 44.0924H423.957C423.675 47.2706 422.933 50.6254 421.731 54.1567C420.53 57.6881 419.328 61.0428 418.127 64.221L405.935 97.6981C403.956 102.924 401.553 106.597 398.726 108.716C395.969 110.905 392.718 112 388.972 112Z" fill="black"/>
<path d="M449.899 0.393328C448.247 0.69299 447.782 0.932725 447.226 1.75679C446.641 2.61083 446.881 4.76839 447.872 7.63016C448.743 10.1024 449.644 11.7355 451.146 13.5035L452.002 14.4924H450.665C445.499 14.4924 440.934 17.3692 438.546 22.1188C436.819 25.5649 436.759 30.0898 438.381 33.5958C439.747 36.5325 441.745 38.6152 444.643 40.1135L445.98 40.8027L446.04 42.7355C446.115 44.8481 446.37 46.0318 447.136 47.8447C448.127 50.1971 450.26 52.5944 452.633 54.0477L453.909 54.8269L454.014 56.0405C454.57 62.3334 459 67.3527 465.022 68.5214C469.242 69.3305 473.703 68.0569 476.796 65.1502C479.44 62.678 480.881 59.6814 481.212 55.9656L481.302 54.7969L482.158 54.3174C484.095 53.2237 485.852 51.5755 487.054 49.7176C488.465 47.5451 489.081 45.5224 489.171 42.7355L489.231 40.8027L490.553 40.1135C494.322 38.1657 496.725 35.0941 497.731 30.8989C498.137 29.2507 498.077 26.4789 497.596 24.6659C496.23 19.4668 491.874 15.4813 486.633 14.6422C485.927 14.5224 484.801 14.4774 483.705 14.5374C480.986 14.6572 478.884 15.3614 476.571 16.9496L475.565 17.6389L474.784 17.0395C473.718 16.2454 472.576 15.6461 471.21 15.1816C470.594 14.9869 470.068 14.7321 470.038 14.6422C469.888 14.2077 470.519 11.9153 471.135 10.6717C472.757 7.36046 475.895 5.23287 479.665 4.91822C481.272 4.78338 481.887 4.51368 482.443 3.68961C482.743 3.27009 482.789 3.03035 482.743 2.34113C482.668 1.35225 482.263 0.707978 481.482 0.333401C480.746 -0.0112097 478.403 0.0936678 476.616 0.54316C475.024 0.947703 472.636 2.10141 471.36 3.07531C470.174 3.97429 468.446 5.77226 467.831 6.73117C467.575 7.13572 467.35 7.45036 467.305 7.45036C467.26 7.43538 466.975 7.04582 466.659 6.56636C464.722 3.58473 461.343 1.35225 457.423 0.468248C455.756 0.0936708 451.777 0.0637004 449.899 0.393328ZM457.468 5.41266C459.105 5.96704 460.097 6.56636 461.343 7.73504C462.875 9.17342 463.761 10.6118 464.527 12.8593L464.902 13.938L462.755 13.8631C460.998 13.8032 460.412 13.7133 459.421 13.3986C456.027 12.2899 453.624 9.78773 452.347 6.04195C452.152 5.4726 451.987 4.96317 451.987 4.9332C451.987 4.90324 452.948 4.90324 454.134 4.9332C455.952 4.99314 456.447 5.06805 457.468 5.41266ZM452.888 19.5117C453.339 19.6316 454.089 19.9013 454.555 20.1111L455.381 20.5156L454.66 21.954C453.594 24.1115 453.293 25.3701 453.278 27.9023C453.263 29.5055 453.323 30.2546 453.549 31.1236C453.879 32.4421 454.66 34.345 455.126 35.0043L455.456 35.4687L454.96 35.7684C453.339 36.7723 450.23 37.0569 448.157 36.4127C445.394 35.5436 443.141 33.2063 442.285 30.2996C441.97 29.2208 441.925 27.1831 442.21 26.0294C442.931 23.0028 445.409 20.4407 448.458 19.5717C449.584 19.242 451.777 19.2121 452.888 19.5117ZM468.687 19.4518C470.098 19.7365 471.841 20.6804 472.892 21.7292C474.634 23.4673 475.415 25.2053 475.535 27.6026C475.655 30.2846 474.919 32.2024 472.997 34.1502C472.081 35.0941 471.615 35.4238 470.594 35.9032C468.537 36.8621 466.764 37.0419 464.692 36.5175C463.04 36.098 461.839 35.4088 460.622 34.1952C458.52 32.0975 457.634 29.2807 458.159 26.389C458.73 23.2276 461.433 20.3658 464.602 19.5267C465.593 19.257 467.59 19.2271 468.687 19.4518ZM486.588 19.5267C489.682 20.3208 492.265 22.9429 493.001 26.0294C493.271 27.1681 493.241 29.2058 492.926 30.2846C492.295 32.4122 491.063 34.1352 489.306 35.3039C486.693 37.042 483.434 37.2817 480.611 35.9182C480.1 35.6785 479.47 35.2889 479.184 35.0642L478.674 34.6297L479.019 33.9704C480.761 30.5543 480.821 25.9695 479.154 22.3136L478.704 21.3247L479.049 21.055C479.695 20.5606 481.377 19.7365 482.188 19.5267C483.284 19.2271 485.447 19.2271 486.588 19.5267ZM476.421 39.0197C478.088 40.2783 480.941 41.3421 483.299 41.5519L484.425 41.6567V42.5108C484.425 43.6495 483.945 45.4624 483.344 46.6012C483.059 47.1256 482.383 47.9946 481.797 48.5939C479.094 51.2909 475.039 51.9501 471.645 50.2271C471.36 50.0772 471.105 49.9424 471.075 49.9124C471.045 49.8825 471.285 49.3431 471.615 48.6988C472.787 46.4363 473.207 44.5485 473.147 41.8965L473.102 40.1434L474.288 39.3194C474.949 38.8699 475.535 38.4953 475.595 38.4803C475.655 38.4803 476.03 38.7051 476.421 39.0197ZM459.736 39.6041C461.734 40.8776 464.031 41.5219 466.584 41.5369H468.356V42.5857C468.356 44.8631 467.515 46.7959 465.788 48.549C464.857 49.4779 464.392 49.8225 463.385 50.287C460.712 51.5306 457.964 51.4707 455.396 50.1222C454.195 49.4929 452.498 47.7998 451.867 46.6012C451.266 45.4624 450.785 43.6495 450.785 42.5108V41.6567L451.912 41.5519C452.528 41.4919 453.564 41.3121 454.21 41.1623C455.321 40.8776 457.754 39.7988 458.369 39.3044C458.775 38.9898 458.775 38.9897 459.736 39.6041ZM468.341 53.8979C470.174 55.0516 472.516 55.8008 474.859 55.9506C476.526 56.0555 476.481 56.0105 476.091 57.4939C475.715 58.9172 474.964 60.1908 473.838 61.3295C470.339 64.8506 464.902 64.8356 461.373 61.3145C460.247 60.1908 459.496 58.9172 459.12 57.4939C458.73 56.0555 458.76 55.9955 459.781 55.9955C461.929 55.9955 464.677 55.2164 466.569 54.0477C467.095 53.7331 467.56 53.4634 467.59 53.4484C467.62 53.4484 467.966 53.6432 468.341 53.8979Z" fill="black"/>
<path d="M492.291 0H487.747C486.911 0 486.232 0.677586 486.232 1.51343V3.02686C486.232 3.8627 486.911 4.54029 487.747 4.54029H492.291C493.127 4.54029 493.805 3.8627 493.805 3.02686V1.51343C493.805 0.677586 493.127 0 492.291 0Z" fill="black"/>
</svg>
